<mxfile host="app.diagrams.net" modified="2023-10-20T13:48:06.324Z" agent="Mozilla/5.0 (Windows NT 10.0; Win64; x64; rv:109.0) Gecko/20100101 Firefox/119.0" etag="6hy9BP5Tel6ZeB45XiCM" version="22.0.5" type="device">
  <diagram id="R2lEEEUBdFMjLlhIrx00" name="Page-1">
    <mxGraphModel dx="1480" dy="1874" grid="1" gridSize="10" guides="1" tooltips="1" connect="1" arrows="1" fold="1" page="1" pageScale="1" pageWidth="850" pageHeight="1100" math="0" shadow="0" extFonts="Permanent Marker^https://fonts.googleapis.com/css?family=Permanent+Marker">
      <root>
        <mxCell id="0" />
        <mxCell id="1" parent="0" />
        <mxCell id="ohDfsWlhvu4XNscFXX25-84" value="" style="edgeStyle=entityRelationEdgeStyle;endArrow=ERzeroToMany;startArrow=ERone;endFill=1;startFill=0;entryX=0;entryY=0.5;entryDx=0;entryDy=0;exitX=1;exitY=0.5;exitDx=0;exitDy=0;" parent="1" target="tfbaRxO_O8Mmq4KCkCcL-18" edge="1">
          <mxGeometry width="100" height="100" relative="1" as="geometry">
            <mxPoint x="600" y="-300" as="sourcePoint" />
            <mxPoint x="665" y="-90" as="targetPoint" />
            <Array as="points">
              <mxPoint x="415" y="90" />
              <mxPoint x="415" y="90" />
            </Array>
          </mxGeometry>
        </mxCell>
        <mxCell id="ohDfsWlhvu4XNscFXX25-86" value="" style="edgeStyle=entityRelationEdgeStyle;endArrow=ERzeroToMany;startArrow=ERone;endFill=1;startFill=0;entryX=0;entryY=0.5;entryDx=0;entryDy=0;exitX=1;exitY=0.5;exitDx=0;exitDy=0;" parent="1" source="tfbaRxO_O8Mmq4KCkCcL-2" target="tfbaRxO_O8Mmq4KCkCcL-14" edge="1">
          <mxGeometry width="100" height="100" relative="1" as="geometry">
            <mxPoint x="250" y="-300" as="sourcePoint" />
            <mxPoint x="470" y="-340" as="targetPoint" />
            <Array as="points">
              <mxPoint x="620" y="40" />
              <mxPoint x="620" y="40" />
              <mxPoint x="470" y="-310" />
            </Array>
          </mxGeometry>
        </mxCell>
        <mxCell id="tfbaRxO_O8Mmq4KCkCcL-2" value="" style="rounded=1;whiteSpace=wrap;html=1;fillColor=#e1d5e7;strokeColor=#9673a6;" vertex="1" parent="1">
          <mxGeometry x="240" y="-250" width="130" height="80" as="geometry" />
        </mxCell>
        <mxCell id="tfbaRxO_O8Mmq4KCkCcL-3" value="&lt;font style=&quot;font-size: 22px;&quot;&gt;User&lt;/font&gt;" style="text;html=1;strokeColor=none;fillColor=none;align=center;verticalAlign=middle;whiteSpace=wrap;rounded=0;" vertex="1" parent="1">
          <mxGeometry x="255" y="-235" width="100" height="50" as="geometry" />
        </mxCell>
        <mxCell id="tfbaRxO_O8Mmq4KCkCcL-14" value="" style="rounded=1;whiteSpace=wrap;html=1;fillColor=#e1d5e7;strokeColor=#9673a6;" vertex="1" parent="1">
          <mxGeometry x="470" y="-340" width="130" height="80" as="geometry" />
        </mxCell>
        <mxCell id="tfbaRxO_O8Mmq4KCkCcL-15" value="&lt;font style=&quot;font-size: 22px;&quot;&gt;Games&lt;/font&gt;" style="text;html=1;strokeColor=none;fillColor=none;align=center;verticalAlign=middle;whiteSpace=wrap;rounded=0;" vertex="1" parent="1">
          <mxGeometry x="485" y="-325" width="100" height="50" as="geometry" />
        </mxCell>
        <mxCell id="tfbaRxO_O8Mmq4KCkCcL-18" value="" style="rounded=1;whiteSpace=wrap;html=1;fillColor=#e1d5e7;strokeColor=#9673a6;" vertex="1" parent="1">
          <mxGeometry x="700" y="-255" width="130" height="80" as="geometry" />
        </mxCell>
        <mxCell id="tfbaRxO_O8Mmq4KCkCcL-19" value="&lt;font style=&quot;font-size: 22px;&quot;&gt;Links&lt;/font&gt;" style="text;html=1;strokeColor=none;fillColor=none;align=center;verticalAlign=middle;whiteSpace=wrap;rounded=0;" vertex="1" parent="1">
          <mxGeometry x="715" y="-240" width="100" height="50" as="geometry" />
        </mxCell>
      </root>
    </mxGraphModel>
  </diagram>
</mxfile>
